<svg xmlns="http://www.w3.org/2000/svg" width="1920" height="1080"><path d="M84,1240L-157,1234L369,1263Z" fill="#7f90ab" stroke="#7f90ab" stroke-width="1.51"/><path d="M436,-180L541,-165L840,-158Z" fill="#d4d9eb" stroke="#d4d9eb" stroke-width="1.51"/><path d="M436,-180L840,-158L1107,-175Z" fill="#c6d3e7" stroke="#c6d3e7" stroke-width="1.51"/><path d="M966,1255L574,1263L1117,1268Z" fill="#48759a" stroke="#48759a" stroke-width="1.51"/><path d="M1220,1254L1117,1268L1550,1273Z" fill="#1b6590" stroke="#1b6590" stroke-width="1.51"/><path d="M1512,-156L1696,-136L1787,-153Z" fill="#93a9cd" stroke="#93a9cd" stroke-width="1.51"/><path d="M1777,1257L1550,1273L1911,1254Z" fill="#03517f" stroke="#03517f" stroke-width="1.51"/><path d="M436,-180L1107,-175L1965,-193Z" fill="#aac4de" stroke="#aac4de" stroke-width="1.51"/><path d="M236,-182L436,-180L1965,-193Z" fill="#c0d0e6" stroke="#c0d0e6" stroke-width="1.51"/><path d="M1235,-164L1512,-156L1965,-193Z" fill="#97aed3" stroke="#97aed3" stroke-width="1.51"/><path d="M1107,-175L1235,-164L1965,-193Z" fill="#9cb6d8" stroke="#9cb6d8" stroke-width="1.51"/><path d="M1512,-156L1787,-153L1965,-193Z" fill="#92a6c8" stroke="#92a6c8" stroke-width="1.51"/><path d="M1965,-193L1922,-57L2066,-1Z" fill="#8697b3" stroke="#8697b3" stroke-width="1.51"/><path d="M2066,-1L2060,145L2073,274Z" fill="#7386a4" stroke="#7386a4" stroke-width="1.51"/><path d="M2068,843L2063,958L2086,1077Z" fill="#035687" stroke="#035687" stroke-width="1.51"/><path d="M1970,657L2056,702L2090,531Z" fill="#346f98" stroke="#346f98" stroke-width="1.51"/><path d="M1967,533L1970,657L2090,531Z" fill="#3e759d" stroke="#3e759d" stroke-width="1.51"/><path d="M2056,702L2068,843L2090,531Z" fill="#276993" stroke="#276993" stroke-width="1.51"/><path d="M1965,-193L2066,-1L2103,-187Z" fill="#8594ae" stroke="#8594ae" stroke-width="1.51"/><path d="M2073,274L2086,413L2103,-187Z" fill="#7084a2" stroke="#7084a2" stroke-width="1.51"/><path d="M2066,-1L2073,274L2103,-187Z" fill="#7a8ba7" stroke="#7a8ba7" stroke-width="1.51"/><path d="M2086,413L2090,531L2103,-187Z" fill="#667f9f" stroke="#667f9f" stroke-width="1.51"/><path d="M2086,1077L1966,1089L2113,1203Z" fill="#044e79" stroke="#044e79" stroke-width="1.51"/><path d="M1966,1089L1911,1254L2113,1203Z" fill="#034b77" stroke="#034b77" stroke-width="1.51"/><path d="M2090,531L2068,843L2113,1203Z" fill="#0f5c8a" stroke="#0f5c8a" stroke-width="1.51"/><path d="M2068,843L2086,1077L2113,1203Z" fill="#03517e" stroke="#03517e" stroke-width="1.51"/><path d="M2103,-187L2090,531L2113,1203Z" fill="#447297" stroke="#447297" stroke-width="1.51"/><path d="M2056,702L1944,793L2068,843Z" fill="#1a6694" stroke="#1a6694" stroke-width="1.51"/><path d="M2073,274L1915,395L2086,413Z" fill="#5c7ea3" stroke="#5c7ea3" stroke-width="1.51"/><path d="M2086,413L1967,533L2090,531Z" fill="#49769d" stroke="#49769d" stroke-width="1.51"/><path d="M1970,963L1966,1089L2063,958Z" fill="#04588a" stroke="#04588a" stroke-width="1.51"/><path d="M1906,130L2060,145L2066,-1Z" fill="#798cab" stroke="#798cab" stroke-width="1.51"/><path d="M1970,963L2063,958L2068,843Z" fill="#055b8d" stroke="#055b8d" stroke-width="1.51"/><path d="M2060,145L1941,253L2073,274Z" fill="#6c85a6" stroke="#6c85a6" stroke-width="1.51"/><path d="M1941,253L1915,395L2073,274Z" fill="#6484a8" stroke="#6484a8" stroke-width="1.51"/><path d="M2063,958L1966,1089L2086,1077Z" fill="#045383" stroke="#045383" stroke-width="1.51"/><path d="M1915,395L1967,533L2086,413Z" fill="#517ca3" stroke="#517ca3" stroke-width="1.51"/><path d="M1922,-57L1906,130L2066,-1Z" fill="#8093b2" stroke="#8093b2" stroke-width="1.51"/><path d="M1944,793L1970,963L2068,843Z" fill="#0f6193" stroke="#0f6193" stroke-width="1.51"/><path d="M1906,130L1941,253L2060,145Z" fill="#748aad" stroke="#748aad" stroke-width="1.51"/><path d="M1970,657L1944,793L2056,702Z" fill="#236d9a" stroke="#236d9a" stroke-width="1.51"/><path d="M1833,-16L1906,130L1922,-57Z" fill="#8498ba" stroke="#8498ba" stroke-width="1.51"/><path d="M1831,284L1915,395L1941,253Z" fill="#6789b0" stroke="#6789b0" stroke-width="1.51"/><path d="M1787,-153L1922,-57L1965,-193Z" fill="#8c9ebd" stroke="#8c9ebd" stroke-width="1.51"/><path d="M1805,1114L1911,1254L1966,1089Z" fill="#045484" stroke="#045484" stroke-width="1.51"/><path d="M1816,943L1805,1114L1966,1089Z" fill="#045d92" stroke="#045d92" stroke-width="1.51"/><path d="M1915,395L1801,570L1967,533Z" fill="#4c80ab" stroke="#4c80ab" stroke-width="1.51"/><path d="M1763,676L1944,793L1970,657Z" fill="#2773a4" stroke="#2773a4" stroke-width="1.51"/><path d="M1801,570L1763,676L1970,657Z" fill="#377bab" stroke="#377bab" stroke-width="1.51"/><path d="M1967,533L1801,570L1970,657Z" fill="#3e7aa6" stroke="#3e7aa6" stroke-width="1.51"/><path d="M1944,793L1832,846L1970,963Z" fill="#10669b" stroke="#10669b" stroke-width="1.51"/><path d="M1832,846L1816,943L1970,963Z" fill="#06649d" stroke="#06649d" stroke-width="1.51"/><path d="M1816,943L1966,1089L1970,963Z" fill="#055d91" stroke="#055d91" stroke-width="1.51"/><path d="M1789,150L1831,284L1906,130Z" fill="#7792b8" stroke="#7792b8" stroke-width="1.51"/><path d="M1831,284L1817,371L1915,395Z" fill="#638ab3" stroke="#638ab3" stroke-width="1.51"/><path d="M1817,371L1801,570L1915,395Z" fill="#5686b1" stroke="#5686b1" stroke-width="1.51"/><path d="M1906,130L1831,284L1941,253Z" fill="#728db3" stroke="#728db3" stroke-width="1.51"/><path d="M1763,676L1832,846L1944,793Z" fill="#1d71a5" stroke="#1d71a5" stroke-width="1.51"/><path d="M1833,-16L1789,150L1906,130Z" fill="#8097bb" stroke="#8097bb" stroke-width="1.51"/><path d="M1805,1114L1777,1257L1911,1254Z" fill="#035381" stroke="#035381" stroke-width="1.51"/><path d="M1787,-153L1833,-16L1922,-57Z" fill="#8b9fc0" stroke="#8b9fc0" stroke-width="1.51"/><path d="M840,-158L972,-157L1107,-175Z" fill="#b8cce3" stroke="#b8cce3" stroke-width="1.51"/><path d="M1369,1236L1220,1254L1550,1273Z" fill="#16628f" stroke="#16628f" stroke-width="1.51"/><path d="M1661,8L1668,136L1789,150Z" fill="#829cc4" stroke="#829cc4" stroke-width="1.51"/><path d="M1673,1086L1805,1114L1816,943Z" fill="#046198" stroke="#046198" stroke-width="1.51"/><path d="M1684,937L1673,1086L1816,943Z" fill="#0466a0" stroke="#0466a0" stroke-width="1.51"/><path d="M1667,533L1801,570L1817,371Z" fill="#5086b5" stroke="#5086b5" stroke-width="1.51"/><path d="M1665,395L1667,533L1817,371Z" fill="#5b8bb9" stroke="#5b8bb9" stroke-width="1.51"/><path d="M1789,150L1623,253L1831,284Z" fill="#7494bd" stroke="#7494bd" stroke-width="1.51"/><path d="M1665,395L1817,371L1831,284Z" fill="#658db8" stroke="#658db8" stroke-width="1.51"/><path d="M1763,676L1641,791L1832,846Z" fill="#1e75ab" stroke="#1e75ab" stroke-width="1.51"/><path d="M1684,937L1816,943L1832,846Z" fill="#0869a3" stroke="#0869a3" stroke-width="1.51"/><path d="M1787,-153L1696,-136L1833,-16Z" fill="#8ea3c5" stroke="#8ea3c5" stroke-width="1.51"/><path d="M1696,-136L1661,8L1833,-16Z" fill="#8da3c6" stroke="#8da3c6" stroke-width="1.51"/><path d="M1661,8L1789,150L1833,-16Z" fill="#859dc2" stroke="#859dc2" stroke-width="1.51"/><path d="M1623,253L1665,395L1831,284Z" fill="#6c91bd" stroke="#6c91bd" stroke-width="1.51"/><path d="M1641,791L1684,937L1832,846Z" fill="#136fa9" stroke="#136fa9" stroke-width="1.51"/><path d="M1634,1216L1550,1273L1777,1257Z" fill="#045685" stroke="#045685" stroke-width="1.51"/><path d="M1668,136L1623,253L1789,150Z" fill="#7c98c2" stroke="#7c98c2" stroke-width="1.51"/><path d="M1634,1216L1777,1257L1805,1114Z" fill="#045788" stroke="#045788" stroke-width="1.51"/><path d="M1673,1086L1634,1216L1805,1114Z" fill="#045d92" stroke="#045d92" stroke-width="1.51"/><path d="M1667,533L1763,676L1801,570Z" fill="#4081b2" stroke="#4081b2" stroke-width="1.51"/><path d="M1667,533L1633,642L1763,676Z" fill="#3d82b4" stroke="#3d82b4" stroke-width="1.51"/><path d="M1633,642L1641,791L1763,676Z" fill="#2b7db1" stroke="#2b7db1" stroke-width="1.51"/><path d="M541,-165L676,-151L840,-158Z" fill="#cdd6e9" stroke="#cdd6e9" stroke-width="1.51"/><path d="M824,1239L574,1263L966,1255Z" fill="#52799d" stroke="#52799d" stroke-width="1.51"/><path d="M1641,791L1538,796L1684,937Z" fill="#1774af" stroke="#1774af" stroke-width="1.51"/><path d="M1511,991L1673,1086L1684,937Z" fill="#0569a4" stroke="#0569a4" stroke-width="1.51"/><path d="M1529,-35L1661,8L1696,-136Z" fill="#90a6cd" stroke="#90a6cd" stroke-width="1.51"/><path d="M1512,-156L1529,-35L1696,-136Z" fill="#94abd1" stroke="#94abd1" stroke-width="1.51"/><path d="M1665,395L1512,402L1667,533Z" fill="#5b8fbf" stroke="#5b8fbf" stroke-width="1.51"/><path d="M1661,8L1523,152L1668,136Z" fill="#859fc9" stroke="#859fc9" stroke-width="1.51"/><path d="M1506,1080L1634,1216L1673,1086Z" fill="#05629a" stroke="#05629a" stroke-width="1.51"/><path d="M1511,991L1506,1080L1673,1086Z" fill="#0468a4" stroke="#0468a4" stroke-width="1.51"/><path d="M1538,796L1511,991L1684,937Z" fill="#0a70af" stroke="#0a70af" stroke-width="1.51"/><path d="M1633,642L1538,796L1641,791Z" fill="#237db4" stroke="#237db4" stroke-width="1.51"/><path d="M1529,-35L1523,152L1661,8Z" fill="#8aa5ce" stroke="#8aa5ce" stroke-width="1.51"/><path d="M1623,253L1512,402L1665,395Z" fill="#6994c3" stroke="#6994c3" stroke-width="1.51"/><path d="M1503,550L1633,642L1667,533Z" fill="#4588bb" stroke="#4588bb" stroke-width="1.51"/><path d="M1512,402L1503,550L1667,533Z" fill="#538ec1" stroke="#538ec1" stroke-width="1.51"/><path d="M1539,226L1623,253L1668,136Z" fill="#7a9ac6" stroke="#7a9ac6" stroke-width="1.51"/><path d="M1523,152L1539,226L1668,136Z" fill="#809dc9" stroke="#809dc9" stroke-width="1.51"/><path d="M1235,-164L1374,-125L1512,-156Z" fill="#9db8d9" stroke="#9db8d9" stroke-width="1.51"/><path d="M1483,687L1538,796L1633,642Z" fill="#2b81b9" stroke="#2b81b9" stroke-width="1.51"/><path d="M1539,226L1512,402L1623,253Z" fill="#7198c7" stroke="#7198c7" stroke-width="1.51"/><path d="M1506,1080L1550,1273L1634,1216Z" fill="#045e94" stroke="#045e94" stroke-width="1.51"/><path d="M1503,550L1483,687L1633,642Z" fill="#3e88bd" stroke="#3e88bd" stroke-width="1.51"/><path d="M1412,788L1364,990L1511,991Z" fill="#1776b4" stroke="#1776b4" stroke-width="1.51"/><path d="M1413,535L1503,550L1512,402Z" fill="#5792c3" stroke="#5792c3" stroke-width="1.51"/><path d="M1410,126L1523,152L1529,-35Z" fill="#8aa7d0" stroke="#8aa7d0" stroke-width="1.51"/><path d="M1368,-23L1410,126L1529,-35Z" fill="#90add2" stroke="#90add2" stroke-width="1.51"/><path d="M1412,788L1511,991L1538,796Z" fill="#1b79b5" stroke="#1b79b5" stroke-width="1.51"/><path d="M1347,271L1512,402L1539,226Z" fill="#749dca" stroke="#749dca" stroke-width="1.51"/><path d="M1506,1080L1369,1236L1550,1273Z" fill="#0e6295" stroke="#0e6295" stroke-width="1.51"/><path d="M1347,1128L1369,1236L1506,1080Z" fill="#166a9e" stroke="#166a9e" stroke-width="1.51"/><path d="M1512,-156L1374,-125L1529,-35Z" fill="#97b1d5" stroke="#97b1d5" stroke-width="1.51"/><path d="M1483,687L1412,788L1538,796Z" fill="#2782b9" stroke="#2782b9" stroke-width="1.51"/><path d="M1523,152L1410,126L1539,226Z" fill="#83a2cc" stroke="#83a2cc" stroke-width="1.51"/><path d="M1410,126L1347,271L1539,226Z" fill="#81a4cd" stroke="#81a4cd" stroke-width="1.51"/><path d="M1413,535L1376,657L1483,687Z" fill="#438ec0" stroke="#438ec0" stroke-width="1.51"/><path d="M1413,535L1483,687L1503,550Z" fill="#488dc0" stroke="#488dc0" stroke-width="1.51"/><path d="M1347,271L1364,420L1512,402Z" fill="#6d9dc9" stroke="#6d9dc9" stroke-width="1.51"/><path d="M1364,420L1413,535L1512,402Z" fill="#6097c6" stroke="#6097c6" stroke-width="1.51"/><path d="M1374,-125L1368,-23L1529,-35Z" fill="#97b2d5" stroke="#97b2d5" stroke-width="1.51"/><path d="M1364,990L1506,1080L1511,991Z" fill="#126fa9" stroke="#126fa9" stroke-width="1.51"/><path d="M1364,990L1347,1128L1506,1080Z" fill="#1770a7" stroke="#1770a7" stroke-width="1.51"/><path d="M1376,657L1412,788L1483,687Z" fill="#3288bd" stroke="#3288bd" stroke-width="1.51"/><path d="M1249,223L1347,271L1410,126Z" fill="#84a9d0" stroke="#84a9d0" stroke-width="1.51"/><path d="M1229,105L1249,223L1410,126Z" fill="#8caed2" stroke="#8caed2" stroke-width="1.51"/><path d="M1368,-23L1250,4L1410,126Z" fill="#93b2d4" stroke="#93b2d4" stroke-width="1.51"/><path d="M1250,4L1229,105L1410,126Z" fill="#91b2d5" stroke="#91b2d5" stroke-width="1.51"/><path d="M1238,930L1364,990L1412,788Z" fill="#217db7" stroke="#217db7" stroke-width="1.51"/><path d="M1231,812L1238,930L1412,788Z" fill="#2a84bb" stroke="#2a84bb" stroke-width="1.51"/><path d="M1376,657L1229,685L1412,788Z" fill="#378dbf" stroke="#378dbf" stroke-width="1.51"/><path d="M1229,685L1231,812L1412,788Z" fill="#328bbe" stroke="#328bbe" stroke-width="1.51"/><path d="M1269,546L1376,657L1413,535Z" fill="#4e95c4" stroke="#4e95c4" stroke-width="1.51"/><path d="M1364,420L1269,546L1413,535Z" fill="#5b99c6" stroke="#5b99c6" stroke-width="1.51"/><path d="M1246,1090L1347,1128L1364,990Z" fill="#1e74a9" stroke="#1e74a9" stroke-width="1.51"/><path d="M1347,271L1229,377L1364,420Z" fill="#72a3cc" stroke="#72a3cc" stroke-width="1.51"/><path d="M1347,1128L1220,1254L1369,1236Z" fill="#1b6998" stroke="#1b6998" stroke-width="1.51"/><path d="M1250,4L1368,-23L1374,-125Z" fill="#9ab7d7" stroke="#9ab7d7" stroke-width="1.51"/><path d="M1235,-164L1250,4L1374,-125Z" fill="#9ebbda" stroke="#9ebbda" stroke-width="1.51"/><path d="M1269,546L1229,685L1376,657Z" fill="#4994c3" stroke="#4994c3" stroke-width="1.51"/><path d="M1229,377L1269,546L1364,420Z" fill="#66a0c9" stroke="#66a0c9" stroke-width="1.51"/><path d="M1238,930L1246,1090L1364,990Z" fill="#217ab0" stroke="#217ab0" stroke-width="1.51"/><path d="M1246,1090L1220,1254L1347,1128Z" fill="#2070a0" stroke="#2070a0" stroke-width="1.51"/><path d="M1249,223L1229,377L1347,271Z" fill="#7ca8cf" stroke="#7ca8cf" stroke-width="1.51"/><path d="M1091,1091L1220,1254L1246,1090Z" fill="#2c75a4" stroke="#2c75a4" stroke-width="1.51"/><path d="M1238,930L1101,951L1246,1090Z" fill="#2e7eb3" stroke="#2e7eb3" stroke-width="1.51"/><path d="M1096,257L1229,377L1249,223Z" fill="#83acd1" stroke="#83acd1" stroke-width="1.51"/><path d="M1235,-164L1099,-22L1250,4Z" fill="#a1bedb" stroke="#a1bedb" stroke-width="1.51"/><path d="M1229,377L1132,416L1269,546Z" fill="#6ba3cb" stroke="#6ba3cb" stroke-width="1.51"/><path d="M1132,416L1112,550L1269,546Z" fill="#67a2cb" stroke="#67a2cb" stroke-width="1.51"/><path d="M1112,550L1229,685L1269,546Z" fill="#569bc7" stroke="#569bc7" stroke-width="1.51"/><path d="M1091,1091L1117,1268L1220,1254Z" fill="#30719d" stroke="#30719d" stroke-width="1.51"/><path d="M1112,550L1129,694L1229,685Z" fill="#539ac6" stroke="#539ac6" stroke-width="1.51"/><path d="M1229,685L1129,694L1231,812Z" fill="#3f92c2" stroke="#3f92c2" stroke-width="1.51"/><path d="M1107,-175L1099,-22L1235,-164Z" fill="#a8c3de" stroke="#a8c3de" stroke-width="1.51"/><path d="M1231,812L1101,951L1238,930Z" fill="#3285bb" stroke="#3285bb" stroke-width="1.51"/><path d="M1101,951L1091,1091L1246,1090Z" fill="#347db0" stroke="#347db0" stroke-width="1.51"/><path d="M1229,105L1096,257L1249,223Z" fill="#8db1d4" stroke="#8db1d4" stroke-width="1.51"/><path d="M1099,-22L1229,105L1250,4Z" fill="#9cb9d9" stroke="#9cb9d9" stroke-width="1.51"/><path d="M1082,793L1101,951L1231,812Z" fill="#3d8bbe" stroke="#3d8bbe" stroke-width="1.51"/><path d="M1096,257L1132,416L1229,377Z" fill="#7eabd0" stroke="#7eabd0" stroke-width="1.51"/><path d="M1099,-22L1063,82L1229,105Z" fill="#9fbbd9" stroke="#9fbbd9" stroke-width="1.51"/><path d="M1063,82L1096,257L1229,105Z" fill="#97b6d6" stroke="#97b6d6" stroke-width="1.51"/><path d="M1129,694L1082,793L1231,812Z" fill="#4291c1" stroke="#4291c1" stroke-width="1.51"/><path d="M1082,793L975,945L1101,951Z" fill="#448bbe" stroke="#448bbe" stroke-width="1.51"/><path d="M972,-157L1099,-22L1107,-175Z" fill="#afc7e0" stroke="#afc7e0" stroke-width="1.51"/><path d="M987,527L954,674L1112,550Z" fill="#69a3cc" stroke="#69a3cc" stroke-width="1.51"/><path d="M1091,1091L966,1255L1117,1268Z" fill="#39749e" stroke="#39749e" stroke-width="1.51"/><path d="M1112,550L954,674L1129,694Z" fill="#5d9ec8" stroke="#5d9ec8" stroke-width="1.51"/><path d="M1096,257L989,364L1132,416Z" fill="#85aed2" stroke="#85aed2" stroke-width="1.51"/><path d="M987,527L1112,550L1132,416Z" fill="#70a6cd" stroke="#70a6cd" stroke-width="1.51"/><path d="M989,364L987,527L1132,416Z" fill="#7cabd0" stroke="#7cabd0" stroke-width="1.51"/><path d="M1063,82L944,119L1096,257Z" fill="#9ebad9" stroke="#9ebad9" stroke-width="1.51"/><path d="M954,674L1082,793L1129,694Z" fill="#5199c6" stroke="#5199c6" stroke-width="1.51"/><path d="M943,843L975,945L1082,793Z" fill="#4c90c1" stroke="#4c90c1" stroke-width="1.51"/><path d="M944,119L941,260L1096,257Z" fill="#9bb8d8" stroke="#9bb8d8" stroke-width="1.51"/><path d="M975,945L1091,1091L1101,951Z" fill="#4084b6" stroke="#4084b6" stroke-width="1.51"/><path d="M975,945L928,1077L1091,1091Z" fill="#4584b4" stroke="#4584b4" stroke-width="1.51"/><path d="M928,1077L966,1255L1091,1091Z" fill="#437da9" stroke="#437da9" stroke-width="1.51"/><path d="M972,-157L939,-1L1099,-22Z" fill="#b0c6e0" stroke="#b0c6e0" stroke-width="1.51"/><path d="M681,1231L574,1263L824,1239Z" fill="#5a7ca0" stroke="#5a7ca0" stroke-width="1.51"/><path d="M941,260L989,364L1096,257Z" fill="#90b4d6" stroke="#90b4d6" stroke-width="1.51"/><path d="M939,-1L1063,82L1099,-22Z" fill="#a9c1dd" stroke="#a9c1dd" stroke-width="1.51"/><path d="M954,674L943,843L1082,793Z" fill="#5398c5" stroke="#5398c5" stroke-width="1.51"/><path d="M939,-1L944,119L1063,82Z" fill="#a9c1dd" stroke="#a9c1dd" stroke-width="1.51"/><path d="M835,1099L824,1239L928,1077Z" fill="#5081ac" stroke="#5081ac" stroke-width="1.51"/><path d="M827,688L943,843L954,674Z" fill="#5e9ec8" stroke="#5e9ec8" stroke-width="1.51"/><path d="M928,1077L824,1239L966,1255Z" fill="#4a7ba3" stroke="#4a7ba3" stroke-width="1.51"/><path d="M840,-158L939,-1L972,-157Z" fill="#b9cce3" stroke="#b9cce3" stroke-width="1.51"/><path d="M835,409L847,516L987,527Z" fill="#82aed2" stroke="#82aed2" stroke-width="1.51"/><path d="M847,516L954,674L987,527Z" fill="#73a8ce" stroke="#73a8ce" stroke-width="1.51"/><path d="M835,409L987,527L989,364Z" fill="#85afd3" stroke="#85afd3" stroke-width="1.51"/><path d="M941,260L835,409L989,364Z" fill="#92b4d6" stroke="#92b4d6" stroke-width="1.51"/><path d="M840,-158L813,-33L939,-1Z" fill="#bbcce3" stroke="#bbcce3" stroke-width="1.51"/><path d="M806,155L941,260L944,119Z" fill="#a6bedc" stroke="#a6bedc" stroke-width="1.51"/><path d="M847,516L827,688L954,674Z" fill="#70a6cd" stroke="#70a6cd" stroke-width="1.51"/><path d="M943,843L790,972L975,945Z" fill="#538ec1" stroke="#538ec1" stroke-width="1.51"/><path d="M790,972L928,1077L975,945Z" fill="#518aba" stroke="#518aba" stroke-width="1.51"/><path d="M789,855L790,972L943,843Z" fill="#5b93c4" stroke="#5b93c4" stroke-width="1.51"/><path d="M784,236L835,409L941,260Z" fill="#9cb9d8" stroke="#9cb9d8" stroke-width="1.51"/><path d="M827,688L789,855L943,843Z" fill="#609ac7" stroke="#609ac7" stroke-width="1.51"/><path d="M939,-1L813,-33L944,119Z" fill="#b2c6e0" stroke="#b2c6e0" stroke-width="1.51"/><path d="M813,-33L806,155L944,119Z" fill="#b2c4df" stroke="#b2c4df" stroke-width="1.51"/><path d="M790,972L835,1099L928,1077Z" fill="#5488b6" stroke="#5488b6" stroke-width="1.51"/><path d="M806,155L784,236L941,260Z" fill="#a6bedb" stroke="#a6bedb" stroke-width="1.51"/><path d="M643,92L806,155L813,-33Z" fill="#bac9e1" stroke="#bac9e1" stroke-width="1.51"/><path d="M646,2L643,92L813,-33Z" fill="#c2cde4" stroke="#c2cde4" stroke-width="1.51"/><path d="M704,680L789,855L827,688Z" fill="#6ba2cb" stroke="#6ba2cb" stroke-width="1.51"/><path d="M695,566L704,680L827,688Z" fill="#7aa9d0" stroke="#7aa9d0" stroke-width="1.51"/><path d="M784,236L686,291L835,409Z" fill="#a2bbda" stroke="#a2bbda" stroke-width="1.51"/><path d="M681,1231L824,1239L835,1099Z" fill="#567fa6" stroke="#567fa6" stroke-width="1.51"/><path d="M676,-151L813,-33L840,-158Z" fill="#c5d1e6" stroke="#c5d1e6" stroke-width="1.51"/><path d="M835,409L658,435L847,516Z" fill="#8fb3d5" stroke="#8fb3d5" stroke-width="1.51"/><path d="M658,435L695,566L847,516Z" fill="#8db2d4" stroke="#8db2d4" stroke-width="1.51"/><path d="M695,566L827,688L847,516Z" fill="#7cabd0" stroke="#7cabd0" stroke-width="1.51"/><path d="M686,291L658,435L835,409Z" fill="#9db9d8" stroke="#9db9d8" stroke-width="1.51"/><path d="M790,972L659,1072L835,1099Z" fill="#5d8bb8" stroke="#5d8bb8" stroke-width="1.51"/><path d="M659,1072L681,1231L835,1099Z" fill="#5d86af" stroke="#5d86af" stroke-width="1.51"/><path d="M704,680L653,819L789,855Z" fill="#6ea0cb" stroke="#6ea0cb" stroke-width="1.51"/><path d="M789,855L715,938L790,972Z" fill="#6193c4" stroke="#6193c4" stroke-width="1.51"/><path d="M676,-151L646,2L813,-33Z" fill="#c7d1e6" stroke="#c7d1e6" stroke-width="1.51"/><path d="M643,92L784,236L806,155Z" fill="#b4c3df" stroke="#b4c3df" stroke-width="1.51"/><path d="M643,92L686,291L784,236Z" fill="#b2c3de" stroke="#b2c3de" stroke-width="1.51"/><path d="M715,938L659,1072L790,972Z" fill="#638fbe" stroke="#638fbe" stroke-width="1.51"/><path d="M653,819L715,938L789,855Z" fill="#6898c7" stroke="#6898c7" stroke-width="1.51"/><path d="M643,92L564,142L686,291Z" fill="#bcc7e1" stroke="#bcc7e1" stroke-width="1.51"/><path d="M564,142L532,265L686,291Z" fill="#b8c5e0" stroke="#b8c5e0" stroke-width="1.51"/><path d="M528,716L653,819L704,680Z" fill="#78a7ce" stroke="#78a7ce" stroke-width="1.51"/><path d="M695,566L560,563L704,680Z" fill="#87afd3" stroke="#87afd3" stroke-width="1.51"/><path d="M564,978L659,1072L715,938Z" fill="#6992bf" stroke="#6992bf" stroke-width="1.51"/><path d="M653,819L564,978L715,938Z" fill="#6d97c7" stroke="#6d97c7" stroke-width="1.51"/><path d="M659,1072L521,1104L681,1231Z" fill="#668ab2" stroke="#668ab2" stroke-width="1.51"/><path d="M521,1104L574,1263L681,1231Z" fill="#6584a9" stroke="#6584a9" stroke-width="1.51"/><path d="M556,422L658,435L686,291Z" fill="#a4bcdb" stroke="#a4bcdb" stroke-width="1.51"/><path d="M658,435L560,563L695,566Z" fill="#92b5d6" stroke="#92b5d6" stroke-width="1.51"/><path d="M560,563L528,716L704,680Z" fill="#85add2" stroke="#85add2" stroke-width="1.51"/><path d="M559,-1L646,2L676,-151Z" fill="#ccd3e7" stroke="#ccd3e7" stroke-width="1.51"/><path d="M541,-165L559,-1L676,-151Z" fill="#d2d7ea" stroke="#d2d7ea" stroke-width="1.51"/><path d="M532,265L556,422L686,291Z" fill="#aec0dd" stroke="#aec0dd" stroke-width="1.51"/><path d="M556,422L560,563L658,435Z" fill="#9bb9d8" stroke="#9bb9d8" stroke-width="1.51"/><path d="M559,-1L643,92L646,2Z" fill="#c8cfe6" stroke="#c8cfe6" stroke-width="1.51"/><path d="M514,802L564,978L653,819Z" fill="#759eca" stroke="#759eca" stroke-width="1.51"/><path d="M528,716L514,802L653,819Z" fill="#7ba6ce" stroke="#7ba6ce" stroke-width="1.51"/><path d="M564,978L521,1104L659,1072Z" fill="#6d90bb" stroke="#6d90bb" stroke-width="1.51"/><path d="M559,-1L564,142L643,92Z" fill="#c6cee5" stroke="#c6cee5" stroke-width="1.51"/><path d="M532,265L424,277L556,422Z" fill="#b5c4de" stroke="#b5c4de" stroke-width="1.51"/><path d="M541,-165L401,-58L559,-1Z" fill="#d7d9ea" stroke="#d7d9ea" stroke-width="1.51"/><path d="M415,696L528,716L560,563Z" fill="#8cb1d4" stroke="#8cb1d4" stroke-width="1.51"/><path d="M386,576L415,696L560,563Z" fill="#95b5d6" stroke="#95b5d6" stroke-width="1.51"/><path d="M556,422L386,576L560,563Z" fill="#9db9d9" stroke="#9db9d9" stroke-width="1.51"/><path d="M514,802L397,932L564,978Z" fill="#799cca" stroke="#799cca" stroke-width="1.51"/><path d="M559,-1L388,113L564,142Z" fill="#ccd0e6" stroke="#ccd0e6" stroke-width="1.51"/><path d="M521,1104L369,1263L574,1263Z" fill="#6c86a9" stroke="#6c86a9" stroke-width="1.51"/><path d="M436,-180L401,-58L541,-165Z" fill="#dddded" stroke="#dddded" stroke-width="1.51"/><path d="M424,277L363,378L556,422Z" fill="#b4c3df" stroke="#b4c3df" stroke-width="1.51"/><path d="M363,378L386,576L556,422Z" fill="#a9bedc" stroke="#a9bedc" stroke-width="1.51"/><path d="M401,-58L388,113L559,-1Z" fill="#d4d6e9" stroke="#d4d6e9" stroke-width="1.51"/><path d="M397,932L521,1104L564,978Z" fill="#7596c1" stroke="#7596c1" stroke-width="1.51"/><path d="M424,277L532,265L564,142Z" fill="#bec8e2" stroke="#bec8e2" stroke-width="1.51"/><path d="M388,113L424,277L564,142Z" fill="#c7cde4" stroke="#c7cde4" stroke-width="1.51"/><path d="M383,1104L369,1263L521,1104Z" fill="#748db2" stroke="#748db2" stroke-width="1.51"/><path d="M232,1222L84,1240L369,1263Z" fill="#798ca9" stroke="#798ca9" stroke-width="1.51"/><path d="M397,932L383,1104L521,1104Z" fill="#7895be" stroke="#7895be" stroke-width="1.51"/><path d="M379,816L397,932L514,802Z" fill="#81a3cd" stroke="#81a3cd" stroke-width="1.51"/><path d="M415,696L514,802L528,716Z" fill="#83acd1" stroke="#83acd1" stroke-width="1.51"/><path d="M415,696L379,816L514,802Z" fill="#85aad0" stroke="#85aad0" stroke-width="1.51"/><path d="M-53,1223L-157,1234L84,1240Z" fill="#8594af" stroke="#8594af" stroke-width="1.51"/><path d="M363,378L295,511L386,576Z" fill="#abc0dd" stroke="#abc0dd" stroke-width="1.51"/><path d="M279,983L383,1104L397,932Z" fill="#7f9bc3" stroke="#7f9bc3" stroke-width="1.51"/><path d="M277,11L388,113L401,-58Z" fill="#dad9ea" stroke="#dad9ea" stroke-width="1.51"/><path d="M388,113L247,266L424,277Z" fill="#cacee4" stroke="#cacee4" stroke-width="1.51"/><path d="M236,-182L401,-58L436,-180Z" fill="#e3e0ee" stroke="#e3e0ee" stroke-width="1.51"/><path d="M386,576L260,693L415,696Z" fill="#97b6d6" stroke="#97b6d6" stroke-width="1.51"/><path d="M260,693L379,816L415,696Z" fill="#8db1d4" stroke="#8db1d4" stroke-width="1.51"/><path d="M247,266L363,378L424,277Z" fill="#c1c9e2" stroke="#c1c9e2" stroke-width="1.51"/><path d="M275,416L295,511L363,378Z" fill="#b3c4df" stroke="#b3c4df" stroke-width="1.51"/><path d="M232,1222L369,1263L383,1104Z" fill="#778dae" stroke="#778dae" stroke-width="1.51"/><path d="M379,816L294,843L397,932Z" fill="#86a5ce" stroke="#86a5ce" stroke-width="1.51"/><path d="M279,983L252,1063L383,1104Z" fill="#8099c0" stroke="#8099c0" stroke-width="1.51"/><path d="M225,97L247,266L388,113Z" fill="#d3d4e8" stroke="#d3d4e8" stroke-width="1.51"/><path d="M236,-182L277,11L401,-58Z" fill="#e3dfee" stroke="#e3dfee" stroke-width="1.51"/><path d="M260,693L294,843L379,816Z" fill="#8dadd2" stroke="#8dadd2" stroke-width="1.51"/><path d="M294,843L279,983L397,932Z" fill="#84a1cc" stroke="#84a1cc" stroke-width="1.51"/><path d="M252,1063L232,1222L383,1104Z" fill="#7e95b9" stroke="#7e95b9" stroke-width="1.51"/><path d="M295,511L260,693L386,576Z" fill="#a0bbda" stroke="#a0bbda" stroke-width="1.51"/><path d="M277,11L225,97L388,113Z" fill="#d9d8ea" stroke="#d9d8ea" stroke-width="1.51"/><path d="M247,266L275,416L363,378Z" fill="#bec9e2" stroke="#bec9e2" stroke-width="1.51"/><path d="M148,503L98,669L260,693Z" fill="#a4bedc" stroke="#a4bedc" stroke-width="1.51"/><path d="M247,266L132,409L275,416Z" fill="#c0cbe3" stroke="#c0cbe3" stroke-width="1.51"/><path d="M236,-182L135,-13L277,11Z" fill="#e6e2ef" stroke="#e6e2ef" stroke-width="1.51"/><path d="M105,930L279,983L294,843Z" fill="#89a4cf" stroke="#89a4cf" stroke-width="1.51"/><path d="M106,824L105,930L294,843Z" fill="#8fabd2" stroke="#8fabd2" stroke-width="1.51"/><path d="M260,693L106,824L294,843Z" fill="#91b1d4" stroke="#91b1d4" stroke-width="1.51"/><path d="M275,416L148,503L295,511Z" fill="#b2c5df" stroke="#b2c5df" stroke-width="1.51"/><path d="M148,503L260,693L295,511Z" fill="#a7c0dc" stroke="#a7c0dc" stroke-width="1.51"/><path d="M136,1088L232,1222L252,1063Z" fill="#8298bb" stroke="#8298bb" stroke-width="1.51"/><path d="M120,-175L135,-13L236,-182Z" fill="#ebe7f2" stroke="#ebe7f2" stroke-width="1.51"/><path d="M225,97L104,243L247,266Z" fill="#d3d5e8" stroke="#d3d5e8" stroke-width="1.51"/><path d="M132,409L148,503L275,416Z" fill="#b8c8e1" stroke="#b8c8e1" stroke-width="1.51"/><path d="M105,930L252,1063L279,983Z" fill="#87a0c8" stroke="#87a0c8" stroke-width="1.51"/><path d="M135,-13L225,97L277,11Z" fill="#e0dded" stroke="#e0dded" stroke-width="1.51"/><path d="M105,930L136,1088L252,1063Z" fill="#88a0c5" stroke="#88a0c5" stroke-width="1.51"/><path d="M84,141L104,243L225,97Z" fill="#dad9eb" stroke="#dad9eb" stroke-width="1.51"/><path d="M104,243L132,409L247,266Z" fill="#c9d0e6" stroke="#c9d0e6" stroke-width="1.51"/><path d="M98,669L106,824L260,693Z" fill="#98b8d7" stroke="#98b8d7" stroke-width="1.51"/><path d="M136,1088L84,1240L232,1222Z" fill="#8194b3" stroke="#8194b3" stroke-width="1.51"/><path d="M135,-13L84,141L225,97Z" fill="#e0dded" stroke="#e0dded" stroke-width="1.51"/><path d="M-49,-151L14,1L120,-175Z" fill="#f0ebf4" stroke="#f0ebf4" stroke-width="1.51"/><path d="M104,243L-20,286L132,409Z" fill="#cdd4e8" stroke="#cdd4e8" stroke-width="1.51"/><path d="M-20,286L-43,362L132,409Z" fill="#cad2e7" stroke="#cad2e7" stroke-width="1.51"/><path d="M120,-175L14,1L135,-13Z" fill="#ece7f2" stroke="#ece7f2" stroke-width="1.51"/><path d="M14,1L84,141L135,-13Z" fill="#e5e2ef" stroke="#e5e2ef" stroke-width="1.51"/><path d="M-43,1128L84,1240L136,1088Z" fill="#879ab9" stroke="#879ab9" stroke-width="1.51"/><path d="M105,930L14,973L136,1088Z" fill="#8da4ca" stroke="#8da4ca" stroke-width="1.51"/><path d="M132,409L6,504L148,503Z" fill="#b9cae2" stroke="#b9cae2" stroke-width="1.51"/><path d="M6,504L98,669L148,503Z" fill="#afc6e0" stroke="#afc6e0" stroke-width="1.51"/><path d="M98,669L-3,813L106,824Z" fill="#9ab7d8" stroke="#9ab7d8" stroke-width="1.51"/><path d="M14,973L-43,1128L136,1088Z" fill="#8ca2c5" stroke="#8ca2c5" stroke-width="1.51"/><path d="M-43,362L6,504L132,409Z" fill="#c1cfe5" stroke="#c1cfe5" stroke-width="1.51"/><path d="M6,504L-30,689L98,669Z" fill="#aac3de" stroke="#aac3de" stroke-width="1.51"/><path d="M-30,689L-3,813L98,669Z" fill="#9ebcda" stroke="#9ebcda" stroke-width="1.51"/><path d="M-3,813L105,930L106,824Z" fill="#95afd4" stroke="#95afd4" stroke-width="1.51"/><path d="M14,1L-45,100L84,141Z" fill="#e5e1ef" stroke="#e5e1ef" stroke-width="1.51"/><path d="M-43,1128L-53,1223L84,1240Z" fill="#8697b4" stroke="#8697b4" stroke-width="1.51"/><path d="M84,141L-20,286L104,243Z" fill="#d7d9ea" stroke="#d7d9ea" stroke-width="1.51"/><path d="M-3,813L14,973L105,930Z" fill="#93acd3" stroke="#93acd3" stroke-width="1.51"/><path d="M-45,100L-20,286L84,141Z" fill="#dedcec" stroke="#dedcec" stroke-width="1.51"/><path d="M-196,947L-167,1126L-43,1128Z" fill="#92a6c6" stroke="#92a6c6" stroke-width="1.51"/><path d="M-151,418L-132,511L-43,362Z" fill="#c5d2e7" stroke="#c5d2e7" stroke-width="1.51"/><path d="M-132,511L-132,692L-30,689Z" fill="#adc6e0" stroke="#adc6e0" stroke-width="1.51"/><path d="M-45,100L-178,248L-20,286Z" fill="#dddded" stroke="#dddded" stroke-width="1.51"/><path d="M-132,511L-30,689L6,504Z" fill="#b3c8e2" stroke="#b3c8e2" stroke-width="1.51"/><path d="M-43,362L-132,511L6,504Z" fill="#c0cfe5" stroke="#c0cfe5" stroke-width="1.51"/><path d="M-196,947L-43,1128L14,973Z" fill="#92a7ca" stroke="#92a7ca" stroke-width="1.51"/><path d="M-3,813L-154,856L14,973Z" fill="#97b0d5" stroke="#97b0d5" stroke-width="1.51"/><path d="M-154,856L-196,947L14,973Z" fill="#96aed4" stroke="#96aed4" stroke-width="1.51"/><path d="M-195,9L-45,100L14,1Z" fill="#ebe6f1" stroke="#ebe6f1" stroke-width="1.51"/><path d="M-49,-151L-195,9L14,1Z" fill="#f1ebf4" stroke="#f1ebf4" stroke-width="1.51"/><path d="M-195,9L-152,91L-45,100Z" fill="#ebe6f2" stroke="#ebe6f2" stroke-width="1.51"/><path d="M-30,689L-132,692L-3,813Z" fill="#a0bedb" stroke="#a0bedb" stroke-width="1.51"/><path d="M-196,-123L-195,9L-49,-151Z" fill="#f5eef6" stroke="#f5eef6" stroke-width="1.51"/><path d="M-132,692L-154,856L-3,813Z" fill="#9ebad9" stroke="#9ebad9" stroke-width="1.51"/><path d="M-152,91L-178,248L-45,100Z" fill="#e4e1ef" stroke="#e4e1ef" stroke-width="1.51"/><path d="M-178,248L-43,362L-20,286Z" fill="#d3d8ea" stroke="#d3d8ea" stroke-width="1.51"/><path d="M-167,1126L-157,1234L-53,1223Z" fill="#8a9ab6" stroke="#8a9ab6" stroke-width="1.51"/><path d="M-167,1126L-53,1223L-43,1128Z" fill="#8b9dbb" stroke="#8b9dbb" stroke-width="1.51"/><path d="M-178,248L-151,418L-43,362Z" fill="#d0d7e9" stroke="#d0d7e9" stroke-width="1.51"/><path d="M-132,511L-151,418L-132,692Z" fill="#b9cde4" stroke="#b9cde4" stroke-width="1.51"/><path d="M-151,418L-196,947L-132,692Z" fill="#a8c4df" stroke="#a8c4df" stroke-width="1.51"/><path d="M-196,947L-154,856L-132,692Z" fill="#9eb7d9" stroke="#9eb7d9" stroke-width="1.51"/><path d="M-195,9L-178,248L-152,91Z" fill="#e8e4f0" stroke="#e8e4f0" stroke-width="1.51"/><path d="M-178,248L-196,947L-151,418Z" fill="#bacee4" stroke="#bacee4" stroke-width="1.51"/><path d="M-167,1126L-196,947L-157,1234Z" fill="#91a4c4" stroke="#91a4c4" stroke-width="1.51"/><path d="M-195,9L-196,947L-178,248Z" fill="#cbd6e9" stroke="#cbd6e9" stroke-width="1.51"/></svg>